<svg xmlns="http://www.w3.org/2000/svg" width="173" height="34" fill="none"><path fill="#030303" d="M159.826 30.229c-1.59 0-2.901-.377-3.934-1.13-1.032-.753-1.548-1.911-1.548-3.474 0-1.562.572-2.874 1.716-3.934 1.172-1.088 3.013-1.94 5.524-2.553a26.53 26.53 0 0 1 2.595-.502 96.722 96.722 0 0 1 2.009-.251c-.028-1.451-.125-2.553-.293-3.307-.251-1.2-.711-2.023-1.381-2.469-.67-.447-1.367-.67-2.093-.67-.669 0-1.255.14-1.757.419a4.94 4.94 0 0 0-1.298.92c-.195.53-.363 1.089-.502 1.675-.14.558-.237 1.2-.293 1.925l-2.846.293a33.654 33.654 0 0 1-.168-3.18v-1.005c.028-.252.056-.433.084-.544.977-.53 2.163-1.047 3.558-1.549 1.423-.502 3.069-.753 4.938-.753 2.037 0 3.474.432 4.311 1.297.837.837 1.256 2.344 1.256 4.52 0 .502-.014 1.005-.042 1.507a51.89 51.89 0 0 1-.126 1.632c-.056.92-.097 1.674-.125 2.26-.028.586-.042 1.2-.042 1.842 0 .809.042 1.59.125 2.343.112.754.335 1.368.67 1.842.335.446.879.67 1.632.67h.419l.377 1.255a26.9 26.9 0 0 1-1.256.502c-.586.224-1.242.335-1.967.335-1.032 0-1.772-.265-2.218-.795-.447-.53-.74-1.256-.879-2.176-.307.418-.74.865-1.298 1.339s-1.269.879-2.134 1.214c-.837.335-1.842.502-3.014.502Zm-1.381-5.399c0 .92.265 1.646.796 2.176.53.503 1.283.754 2.26.754 1.116 0 2.078-.293 2.887-.88.81-.585 1.34-1.185 1.591-1.799a61.99 61.99 0 0 0 .209-4.353c-.307-.055-.67-.111-1.088-.167a6.207 6.207 0 0 0-1.298-.126c-1.702 0-3.027.433-3.976 1.298-.92.837-1.381 1.87-1.381 3.097Zm-16.299 5.483a581.77 581.77 0 0 1-2.762-8.245 481.138 481.138 0 0 1-1.507-4.771c-.335-1.116-.586-1.94-.753-2.47-.307-.976-.642-1.59-1.005-1.841-.363-.28-.99-.419-1.883-.419l-.461-2.05c.754.027 1.451.055 2.093.083h4.478a549.37 549.37 0 0 1 2.846-.083l.461 1.716c-1.005.083-1.744.223-2.219.418-.446.195-.669.614-.669 1.256 0 .223.042.544.125.962.196.949.475 2.023.837 3.223.363 1.2.754 2.386 1.172 3.557.419 1.144.782 2.163 1.088 3.056l.252 2.804c.39-.81.865-1.87 1.423-3.181.558-1.34 1.158-2.832 1.799-4.478a136.56 136.56 0 0 0 1.967-5.232c.084-.25.126-.488.126-.711 0-.614-.321-.99-.963-1.13-.641-.168-1.437-.252-2.385-.252l-.251-2.008c1.423.083 2.79.125 4.101.125 1.367 0 2.888-.042 4.562-.125l.377 1.841c-1.005.028-1.716.321-2.135.879-.39.53-.739 1.13-1.046 1.8a319.01 319.01 0 0 0-2.428 5.65 387.058 387.058 0 0 0-2.092 5.022 166.268 166.268 0 0 0-1.423 3.516l-3.725 1.088Zm-18.495-.503-.335-1.967h.419c1.06 0 1.841-.209 2.344-.627.53-.419.851-1.019.962-1.8.056-.447.112-1.005.168-1.674.083-.67.125-1.367.125-2.093 0-1.311-.014-2.609-.042-3.892 0-1.312-.027-2.553-.083-3.725-.028-.698-.335-1.116-.921-1.256-.558-.167-1.465-.25-2.72-.25l-.21-1.926c.642 0 1.367-.028 2.177-.084.809-.083 1.604-.167 2.385-.25a55.422 55.422 0 0 0 2.093-.252l1.172-.167a158.287 158.287 0 0 0-.503 5.357 195.753 195.753 0 0 0-.251 4.98 105.952 105.952 0 0 0-.083 3.725c0 1.786.237 2.944.711 3.474.502.53 1.214.795 2.135.795h.167l.335 1.632h-10.045Zm4.604-21.01c-.753 0-1.353-.223-1.8-.67-.446-.446-.669-1.032-.669-1.757 0-.81.251-1.451.753-1.925.53-.503 1.144-.754 1.842-.754.697 0 1.297.224 1.799.67.502.446.754 1.06.754 1.841 0 .782-.252 1.41-.754 1.884s-1.144.711-1.925.711Zm-11.179 21.555c-1.478 0-2.553-.419-3.222-1.256-.67-.837-1.005-2.065-1.005-3.683 0-.307.014-.656.042-1.046.028-.391.084-1.144.168-2.26.055-.837.111-1.758.167-2.763a52.66 52.66 0 0 0 .084-2.93v-1.38c0-.475-.014-.935-.042-1.382a16.977 16.977 0 0 0-1.423-.293 9.068 9.068 0 0 0-2.009-.209l-.293-2.176h3.934V5.075l3.599-.795a96.552 96.552 0 0 0-.209 3.223c-.056 1.144-.111 2.302-.167 3.474h4.98l.377 2.092-5.399.419a54.576 54.576 0 0 0-.293 4.185 278.7 278.7 0 0 0-.042 4.98c0 1.507.112 2.596.335 3.265.223.614.6 1.06 1.13 1.34a3.881 3.881 0 0 0 1.758.418c.837 0 1.66-.251 2.469-.753l.837 1.088c-.251.279-.656.6-1.214.962-.558.363-1.227.684-2.009.963a7.538 7.538 0 0 1-2.553.419Zm-30.604-.545-.252-2.008c.14.027.28.041.419.041h.419c.725 0 1.353-.14 1.883-.418.558-.307.865-.823.92-1.549.14-1.423.21-2.888.21-4.394.028-1.507.042-2.79.042-3.85 0-1.173-.056-2.121-.168-2.847-.111-.725-.46-1.255-1.046-1.59-.558-.363-1.507-.558-2.846-.586l-.21-1.925c.642 0 1.354-.014 2.135-.042l2.386-.167c.809-.056 1.507-.098 2.093-.126a45.287 45.287 0 0 0 1.255-.126c0 .14-.042.475-.126 1.005a42.03 42.03 0 0 1-.209 1.59c-.084.558-.167.977-.25 1.256.585-.67 1.31-1.298 2.175-1.884a11.67 11.67 0 0 1 2.805-1.464 8.366 8.366 0 0 1 3.055-.586c1.228 0 2.26.32 3.097.962.837.614 1.395 1.688 1.674 3.223.056.223.098.642.126 1.256a18.6 18.6 0 0 1 .041 2.218l-.083 3.348c-.028 1.283-.07 2.218-.126 2.804a30.343 30.343 0 0 0-.042 1.34c0 .864.154 1.506.461 1.925.307.418.683.683 1.13.795a5.34 5.34 0 0 0 1.297.167l.293 1.632H99.027l-.335-1.757h.838c.892 0 1.562-.168 2.009-.503.446-.362.739-1.06.878-2.092.056-.39.098-.893.126-1.507a22.62 22.62 0 0 0 .084-1.967c.028-.67.042-1.256.042-1.758 0-.781-.028-1.534-.084-2.26a17.332 17.332 0 0 0-.126-1.674c-.167-1.088-.586-1.87-1.255-2.344-.642-.502-1.451-.753-2.428-.753-1.255 0-2.316.279-3.18.837-.865.558-1.48 1.046-1.842 1.465-.056 1.59-.112 3.264-.168 5.022-.027 1.73-.041 3.362-.041 4.897 0 .865.14 1.507.418 1.925.307.39.67.642 1.088.753.419.112.837.168 1.256.168l.293 1.548H86.472Zm-10.375.629c-1.618 0-3.11-.335-4.478-1.005-1.367-.67-2.456-1.688-3.265-3.055-.809-1.367-1.213-3.111-1.213-5.232 0-2.26.446-4.199 1.339-5.817.893-1.646 2.05-2.902 3.474-3.767 1.45-.865 2.985-1.297 4.604-1.297 1.367 0 2.594.32 3.682.962 1.117.642 1.996 1.59 2.637 2.846.67 1.256 1.005 2.804 1.005 4.646v.837a4.7 4.7 0 0 1-.084.837l-12.765.084c.028 1.311.223 2.553.586 3.725.363 1.144.99 2.078 1.883 2.804.921.725 2.19 1.088 3.809 1.088 1.088 0 1.995-.14 2.72-.419.754-.279 1.326-.558 1.716-.837.419-.307.656-.502.712-.586l.67 1.088c-.224.28-.615.67-1.172 1.172-.558.475-1.326.907-2.302 1.298-.95.418-2.135.628-3.558.628Zm-.21-18.29c-1.255 0-2.329.6-3.222 1.8-.865 1.171-1.395 2.804-1.59 4.896l6.696-.67h2.051a9.205 9.205 0 0 0-.46-2.929c-.28-.92-.712-1.66-1.298-2.218-.558-.586-1.283-.879-2.176-.879ZM41.355 29.81l-.292-1.925c1.395 0 2.33-.237 2.804-.712.502-.474.767-1.032.795-1.674.056-1.953.111-3.738.167-5.357.084-1.646.126-3.25.126-4.813 0-.781-.014-1.688-.042-2.72a99.492 99.492 0 0 0-.126-3.056 7.678 7.678 0 0 0-.25-1.716 2.135 2.135 0 0 0-.88-1.255c-.446-.335-1.171-.502-2.176-.502l-.251-2.01 2.093.084a52.36 52.36 0 0 0 2.092.042c1.005 0 1.981-.014 2.93-.042a133.92 133.92 0 0 1 2.47-.125 22.054 22.054 0 0 1 1.673-.084c.447-.028.865-.042 1.256-.042 3.543 0 6.306.88 8.287 2.637 2.009 1.758 3.013 4.548 3.013 8.37 0 2.01-.293 3.907-.879 5.693-.586 1.785-1.45 3.362-2.595 4.729-1.144 1.367-2.58 2.455-4.31 3.264-1.703.782-3.683 1.172-5.944 1.172l-9.96.042Zm10.882-2.51c2.093 0 3.823-.516 5.19-1.549 1.367-1.032 2.372-2.4 3.013-4.101.67-1.702 1.005-3.53 1.005-5.483 0-1.87-.307-3.571-.921-5.106-.614-1.534-1.59-2.748-2.93-3.641-1.311-.92-3.013-1.381-5.106-1.381-.781 0-1.534.07-2.26.21-.697.11-1.255.236-1.674.376a96.517 96.517 0 0 0-.251 4.394 489.769 489.769 0 0 1-.167 4.227c-.028.865-.056 1.59-.084 2.177v3.724c0 .641.014 1.325.042 2.05.028.726.056 1.256.084 1.59.223 1.675 1.576 2.512 4.06 2.512Z"/><path fill="#963F36" d="M20.4 23.743h6.8l3.399-3.39h-13.6v13.566l3.402-3.393v-6.783Zm3.4-10.176V6.784l-3.4-3.39V16.96H34l-3.402-3.393h-6.799Zm-10.201-3.39H6.8l-3.403 3.39h13.6V0l-3.4 3.393v6.784ZM10.2 20.353v6.784l3.4 3.39V16.96H0l3.4 3.393h6.8Z"/></svg>