<svg xmlns="http://www.w3.org/2000/svg" width="79" height="62" fill="none"><path fill="#232323" d="M21.634 17.51c6.426-1.79 12.579-3.538 18.753-5.208 4.329-1.17 8.683-2.248 13.035-3.328.672-.167 1.416-.245 2.09-.135.383.062.856.536.981.924.102.316-.142.982-.427 1.138-.823.452-1.604 1.249-2.744.55-.335-.205-.972-.02-1.437.106a12619.95 12619.95 0 0 0-29.902 8.153c-1.14.313-1.272.657-1.32 2.94 3.054-.753 6.058-1.547 9.086-2.23 6.734-1.516 13.48-2.98 20.224-4.455.439-.096.955-.242 1.336-.1.45.17.983.565 1.123.981.109.326-.22 1.082-.54 1.219-1.292.555-2.557 1.408-4.118.713-.398-.176-.986-.023-1.462.087-8.398 1.937-16.788 3.907-25.19 5.822-.931.212-1.352.638-1.524 1.556-.293 1.575-.701 3.128-1.102 4.867.649-.047 1.132-.083 1.614-.116 3.854-.26 7.956 2.098 9.616 5.522.105.215.213.467.395.597 1.04.748 2.103 1.464 3.352 2.324.355-.266.927-.647 1.445-1.092 2.103-1.806 2.584-1.735 4.005.78.66-.28 1.323-.618 2.023-.835.336-.104.91-.12 1.074.077.181.217.123.767-.013 1.096-.861 2.076-3.58 2.342-5.511.566-3.204 2.333-3.54 2.334-6.123-.071-.184 1.029-.21 2.05-.578 2.926-.263.627-.935 1.42-1.515 1.502-1.03.145-1.185-.836-1.209-1.696-.004-.13-.086-.259-.157-.457-.5.329-.936.666-1.416.923-1.927 1.034-3.488.175-3.508-2.024-.024-2.574.89-4.83 2.689-6.7-1.339-1.34-4.734-2.024-6.281-1.192-.33.178-.588.663-.695 1.056-.701 2.578-1.39 5.162-1.984 7.766-.112.49.208 1.086.346 1.628.34 1.338.755 2.661.989 4.017.057.33-.467.759-.724 1.142-.298-.296-.684-.545-.873-.9-.28-.523-.419-1.12-.755-2.076-.288.89-.45 1.441-.643 1.98-1.34 3.746-2.627 7.513-4.067 11.22-.43 1.106-.996 2.618-2.59 2.274-1.588-.343-1.404-1.948-1.467-3.148-.232-4.475.587-8.744 2.876-12.648.96-1.641 2.146-3.059 4.193-3.42.269-.048.63-.358.702-.615.63-2.267 1.207-4.55 1.862-7.07-2.378 1.198-3.142 3.277-3.873 5.38a706.46 706.46 0 0 1-.445-.169c-.026-.353-.113-.715-.069-1.059.335-2.62 1.7-4.552 3.867-6.037.628-.43 1.17-1.206 1.409-1.936.51-1.558.796-3.189 1.226-5.012-.7.124-1.178.193-1.648.296-4.48.982-8.958 1.97-13.437 2.955-.197.043-.402.13-.592.108-.64-.076-1.275-.193-1.912-.294.497-.404.934-.975 1.503-1.177 1.324-.472 2.707-.787 4.076-1.13 3.569-.892 7.143-1.765 10.715-2.647 2.148-.531 2.148-.533 2.162-3.055-2.019.543-3.991 1.07-5.961 1.605-1.654.448-3.551.542-4.895 1.45-1.609 1.088-3.332 1.086-5.019 1.462-.473.106-1.074-.363-1.617-.568.333-.495.565-1.283 1.016-1.438 2.712-.935 5.467-1.753 8.224-2.555 2.468-.718 4.937-1.448 7.443-2.01 1.306-.292 1.773-.974 2-2.209.868-4.71 1.827-9.404 2.759-14.103.078-.393.114-.841.332-1.148.2-.28.695-.62.924-.54.337.115.651.544.788.91.11.29-.046.688-.111 1.034-.879 4.606-1.763 9.211-2.642 13.817-.053.285-.08.573-.157 1.133Zm-8.66 27.327C9.866 46.42 7.39 53.734 8.64 57.607l4.335-12.77Zm13.106-8.63c-1.268 1.464-1.856 3.008-1.831 4.949 2.116-1.088 2.747-2.787 1.83-4.948Z"/><path fill="#232323" d="M46.47 35.396c-1.108.254-1.966.056-2.045 1.382-.053.886-1.052 1.052-1.725.404-.87-.837-.832-2.203.244-2.863.838-.514 1.825-.864 2.792-1.066 1.06-.22 1.645-.668 1.921-1.761.457-1.805 1.077-3.569 1.647-5.344.143-.447.355-.872.763-1.256.483 2.563-.489 4.958-.846 7.626 2.904-.406 5.674-.822 8.452-1.174a1344.89 1344.89 0 0 1 16.499-2.007c1.088-.124 2.223-.067 3.31.09.89.128 1.727.682 1.42 1.742-.31 1.068-1.093.758-1.961.484-.827-.262-1.8-.23-2.683-.117a2056.763 2056.763 0 0 0-24.715 3.277c-.499.07-1.146.755-1.31 1.283-1.251 4.04-2.392 8.114-3.59 12.17-.156.527-.344 1.111-.705 1.489-.317.332-.898.41-1.363.602-.188-.477-.502-.947-.527-1.432-.02-.413.315-.835.455-1.265 1.3-4.004 2.593-8.01 3.967-12.264Z"/><path fill="#232323" d="M62.354 44.04c-.76 1.296-1.31 2.307-1.931 3.273-.503.782-.941 1.837-2.181 1.383-1.13-.413-.9-1.442-.834-2.336.116-1.59.264-3.18.432-5.156-1.674 2.117-3.091 3.923-4.528 5.714-.377.47-.744 1.024-1.247 1.297-.453.246-1.264.394-1.588.15-.308-.233-.426-1.152-.217-1.557.69-1.338 1.562-2.584 2.373-3.86.832-1.307 1.674-2.608 2.301-4.161l-3.21 2.228-.203-.13c.29-.485.473-1.114.891-1.43 1.712-1.3 3.424-2.627 5.278-3.698 1.248-.72 1.983-.1 2.05 1.332.096 1.994.235 3.986.366 6.147l.678-.604c1.364-1.218 2.576-1.087 3.46.495.511.915.79 1.957 1.213 2.925.62 1.422 1.327 2.81 1.886 4.255.18.465.008 1.066-.003 1.605-.58-.091-1.439.024-1.688-.313-.706-.955-1.233-2.064-1.7-3.168-.564-1.328-.995-2.713-1.598-4.392Z"/></svg>